# xmcd
#
# Track frame offsets: 
#        150
#        17146
#        30200
#        44194
#        72819
#        87261
#        101576
#        126492
#        140463
#        153710
#        169922
#        195252
#        211062
#        236682
#        251682
#        265009
#        279932
#        297930
#        312559
#        325200
#
# Disc length: 4549 seconds
#
# Revision: 1
# Processed by: cddbd v1.5.2PL0 Copyright (c) Steve Scherf et al.
# Submitted via: ExactAudioCopy v1.1
#
DISCID=2411c314
DTITLE=Billie Holiday - Gold - Disc 1
DYEAR=1949
DGENRE=Jazz
TTITLE0=Lady sings the blues
TTITLE1=That ole devil called love
TTITLE2=The man I love
TTITLE3=Body and soul
TTITLE4=Easy living
TTITLE5=Good morning heartache
TTITLE6=Just one of those things
TTITLE7=Crazy he calls me
TTITLE8=You go to my head
TTITLE9=Theese foolish things
TTITLE10=Gee baby ain't I good to you?
TTITLE11=Blue moon
TTITLE12=I get a kick out of you
TTITLE13=No good man
TTITLE14=Love for sale
TTITLE15=You've changed
TTITLE16=God bless the child
TTITLE17=If you were mine
TTITLE18=I thought about you
TTITLE19=Solitude
EXTD=YEAR: 1949
EXTT0=
EXTT1=
EXTT2=
EXTT3=
EXTT4=
EXTT5=
EXTT6=
EXTT7=
EXTT8=
EXTT9=
EXTT10=
EXTT11=
EXTT12=
EXTT13=
EXTT14=
EXTT15=
EXTT16=
EXTT17=
EXTT18=
EXTT19=
PLAYORDER=
